<svg xmlns="http://www.w3.org/2000/svg" viewBox="0 0 309.9185 175.3501">
  <path fill="#f4a6d7" d="M63.9243 3.4624v57.997c0 3.6358 2.25 6.9829 6.1748 6.9829 3.8662 0 6.1172-3.3471 6.1172-6.9829V3.52c0-1.2119.6347-2.3086 1.8467-2.3086h-15.87c1.3851 0 1.7313 1.039 1.7313 2.251z"/>
  <path fill="#7eddd3" d="M187.3764 3.4624v57.997c0 3.6358 2.25 6.9829 6.1748 6.9829 3.8663 0 6.1172-3.3471 6.1172-6.9829V3.52c0-1.2119.6348-2.3086 1.8467-2.3086h-15.87c1.3851 0 1.7313 1.039 1.7313 2.251z"/>
  <path fill="#ff6a13" d="M237.4228 15.235v21.64h5.8286c4.1553 0 6.5791-2.9428 6.5791-6.8671v-7.9635c0-4.1548-2.6547-6.81-6.6367-6.81z"/>
  <path fill="#59cbe8" d="M15.3506 108.235v51.938h6.0019c3.8662-.1157 6.3477-3.1162 6.3477-7.0405V115.333c0-4.8477-2.7119-7.0982-6.6363-7.0982z"/>
  <path fill="#ffd100" d="M63.911 150.305h9.002l-3.866-25.623-.635-6.752-.577 6.752-3.924 25.623z"/>
  <path d="M27.8735 54.5922c0-1.7314.4038-2.2505 1.731-2.2505h10.792c1.3271 0 1.9043.4039 1.9043 2.1353v7.848c0 12.523-9.2334 20.0249-20.7754 20.0249C9.9254 82.3499 0 74.848 0 62.325v-42.3C0 8.5981 8.9448 0 21.5254 0c14.0234 0 20.4292 10.1567 20.4292 20.3134v5.5977c0 1.789-.3467 2.539-1.8467 2.539H29.374c-1.3853 0-1.7891-.6923-1.7891-2.3081v-5.367c0-3.4048-2.1352-6.9249-5.9438-6.9249-3.7515 0-6.29 3.1739-6.29 6.81v40.8c0 3.6358 2.3086 6.9829 6.29 6.9829 4.2124 0 6.2324-3.3471 6.2324-6.9829zM89.7778 1.2114c1.2695 0 1.8467 1.1543 1.8467 2.3086v58.805c0 11.08-10.0415 20.0249-21.583 20.0249S48.5161 73.405 48.5161 62.325V3.4624c0-1.212.6924-2.251 1.5005-2.251h12.1762c1.3853 0 1.7315 1.039 1.7315 2.251v57.997c0 3.6358 2.25 6.9829 6.1748 6.9829 3.8662 0 6.1172-3.3471 6.1172-6.9829V3.52c0-1.2119.6347-2.3086 1.8467-2.3086zM99.2114 3.4624c0-1.3853.6348-2.251 1.9048-2.251h11.5415c1.3271 0 1.9043.8657 1.9043 2.251v63.71h19.5058c1.0386 0 1.6158.5772 1.6158 1.9619v9.8682c0 1.3852-.5772 2.0776-1.6158 2.0776h-32.894c-1.3276 0-1.9624-.8081-1.9624-2.1929zM168.4707 13.1572c0 1.3852-.6924 2.0776-1.6734 2.0776h-10.7339v63.8257c0 1.3276-.75 2.02-1.6733 2.02h-12.0615c-.981 0-1.6734-.6924-1.6734-2.02V15.235h-10.7338c-.981 0-1.6734-.6924-1.6734-2.0776V3.3466c0-1.3847.6924-2.1352 1.6734-2.1352h36.8759c.981 0 1.6734.6928 1.6734 2.0776zM213.23 1.2114c1.2695 0 1.8466 1.1543 1.8466 2.3086v58.805c0 11.08-10.0415 20.0249-21.583 20.0249s-21.5254-8.9449-21.5254-20.0249V3.4624c0-1.212.6924-2.251 1.5005-2.251h12.1763c1.3852 0 1.7314 1.039 1.7314 2.251v57.997c0 3.6358 2.25 6.9829 6.1748 6.9829 3.8663 0 6.1172-3.3471 6.1172-6.9829V3.52c0-1.2119.6348-2.3086 1.8467-2.3086zM242.5592 49.9755h-5.1363V78.945c0 1.3271-.6347 2.1352-1.9043 2.1352H223.977c-1.3276 0-1.9048-.8081-1.9048-2.1352V3.4624c0-1.3853.75-2.251 1.9624-2.251h20.3711a20.6058 20.6058 0 0 1 20.833 20.833v6.6367c0 8.3677-3.8667 14.1963-9.06 17.6011l9.81 32.5478c.2886 1.0386-.1152 2.2505-1.2119 2.2505h-12.061c-1.1543 0-1.5581-.3462-1.8467-1.8467zm-5.1364-34.7405v21.64h5.8286c4.1553 0 6.5791-2.9428 6.5791-6.8671v-7.9635c0-4.1548-2.6547-6.81-6.6367-6.81zM305.5327 45.6474a1.7079 1.7079 0 0 1-1.8467 1.9619h-16.8511v19.5635h21.41c.9233 0 1.6733.6348 1.6733 1.9619v9.9839c0 1.3272-.75 1.9619-1.6733 1.9619h-34.7982c-1.3276 0-1.9624-.8081-1.9624-2.1929V3.4624c0-1.3853.75-2.251 1.9624-2.251h34.51c1.0386 0 1.6157.6928 1.6157 2.1352v9.8106c0 1.3852-.5771 2.0776-1.6157 2.0776h-21.1218v18.5244h16.8511a1.7777 1.7777 0 0 1 1.8467 2.02zM43.0508 153.5937c0 13.2734-9.1758 20.3716-20.9483 20.4868H1.9624c-1.3277 0-1.9624-.8081-1.9624-2.1929V96.4624c0-1.3853.7505-2.251 1.9624-2.251h20.0249c11.9458.1157 21.0635 7.2715 21.0635 20.4868zM27.7002 115.333c0-4.8477-2.7119-7.0982-6.6363-7.0982h-5.7133v51.938h6.0019c3.8662-.1157 6.3477-3.1162 6.3477-7.0405zM91.3222 171.945c.2886 1.3271-.0576 2.1352-1.1543 2.1352H78.6264a2.1641 2.1641 0 0 1-2.3662-1.9043l-1.5005-9.6377H62.0639l-1.4428 9.6377a2.1431 2.1431 0 0 1-2.3081 1.9043h-11.6c-1.0962 0-1.4429-.8081-1.0962-2.1929l15.639-75.6559c.3467-1.3848 1.0391-2.02 2.1934-2.02h9.9834c1.2119 0 1.9043.6352 2.1929 2.02zm-27.4116-21.64h9.0025l-3.8663-25.6225-.6347-6.752-.5772 6.752zM114.6435 141.0712V171.83c0 1.4424-.519 2.25-1.7309 2.25h-11.9458c-1.2119 0-1.6734-.8081-1.6734-2.25v-30.6435L84.1738 96.635c-.4619-1.4424.0576-2.4238 1.2695-2.4238H96.812c1.0386 0 1.9043.4619 2.2505 2.0776l7.0981 25.45.75 3.9243.8081-3.9243 6.9829-25.45a2.3229 2.3229 0 0 1 2.3081-2.0776h11.4844c1.2114 0 1.6157.9238 1.0962 2.4238zM144.9209 153.767c0 5.771 3.6357 7.6177 6.5791 7.6177a6.4747 6.4747 0 0 0 6.5786-6.8677c0-5.5976-3.001-8.1943-10.0991-13.9653-12.0611-9.81-17.4859-13.6191-17.4859-26.8345C130.4936 98.7128 142.9013 93 150.9804 93c11.9458 0 20.4864 8.31 20.4864 21.0634v3.29c0 1.6157-.4038 2.1928-2.25 2.1928h-10.33c-1.4429 0-1.6738-.5771-1.6738-2.1928v-3.232c0-3.9819-2.0777-7.271-6.2325-7.271-2.8852 0-6.2324 2.02-6.2324 7.271 0 5.4825 3.4048 7.9639 8.54 11.9458 10.7915 8.3677 19.39 14.6582 19.39 29.2583 0 10.7916-8.5405 20.0249-21.2945 20.0249-13.9077 0-20.8906-9.8681-20.8906-20.7172v-3.0586c0-1.9624.3462-2.77 1.9624-2.77h10.5038c1.6157 0 1.9619.6347 1.9619 2.3662z"/>
</svg>
